HIERARCHY
ROOT Hips
{
	OFFSET 0.00000 0.00000 0.00000
	CHANNELS 6 Xposition Yposition Zposition Zrotation Yrotation Xrotation 
	JOINT LHipJoint
	{
		OFFSET 0 0 0
		CHANNELS 3 Zrotation Yrotation Xrotation
		JOINT LeftUpLeg
		{
			OFFSET 1.48416 -1.82041 0.59464
			CHANNELS 3 Zrotation Yrotation Xrotation
			JOINT LeftLeg
			{
				OFFSET 2.43280 -6.68407 0.00000
				CHANNELS 3 Zrotation Yrotation Xrotation
				JOINT LeftFoot
				{
					OFFSET 2.68325 -7.37216 0.00000
					CHANNELS 3 Zrotation Yrotation Xrotation
					JOINT LeftToeBase
					{
						OFFSET 0.15365 -0.42214 1.91990
						CHANNELS 3 Zrotation Yrotation Xrotation
						End Site
						{
							OFFSET 0.00000 -0.00000 0.99320
						}
					}
				}
			}
		}
	}
	JOINT RHipJoint
	{
		OFFSET 0 0 0
		CHANNELS 3 Zrotation Yrotation Xrotation
		JOINT RightUpLeg
		{
			OFFSET -1.70852 -1.82040 0.59464
			CHANNELS 3 Zrotation Yrotation Xrotation
			JOINT RightLeg
			{
				OFFSET -2.50396 -6.87957 0.00000
				CHANNELS 3 Zrotation Yrotation Xrotation
				JOINT RightFoot
				{
					OFFSET -2.67204 -7.34139 0.00000
					CHANNELS 3 Zrotation Yrotation Xrotation
					JOINT RightToeBase
					{
						OFFSET -0.17346 -0.47657 2.02009
						CHANNELS 3 Zrotation Yrotation Xrotation
						End Site
						{
							OFFSET -0.00000 -0.00000 1.04609
						}
					}
				}
			}
		}
	}
	JOINT LowerBack
	{
		OFFSET 0 0 0
		CHANNELS 3 Zrotation Yrotation Xrotation
		JOINT Spine
		{
			OFFSET -0.01022 1.99636 -0.30653
			CHANNELS 3 Zrotation Yrotation Xrotation
			JOINT Spine1
			{
				OFFSET -0.01683 2.01212 0.04808
				CHANNELS 3 Zrotation Yrotation Xrotation
				JOINT Neck
				{
					OFFSET 0 0 0
					CHANNELS 3 Zrotation Yrotation Xrotation
					JOINT Neck1
					{
						OFFSET -0.03080 1.91178 0.03911
						CHANNELS 3 Zrotation Yrotation Xrotation
						JOINT Head
						{
							OFFSET 0.10605 1.89839 -0.23433
							CHANNELS 3 Zrotation Yrotation Xrotation
							End Site
							{
								OFFSET 0.03474 1.92469 -0.08609
							}
						}
					}
				}
				JOINT LeftShoulder
				{
					OFFSET 0 0 0
					CHANNELS 3 Zrotation Yrotation Xrotation
					JOINT LeftArm
					{
						OFFSET 3.78977 1.27972 -0.24661
						CHANNELS 3 Zrotation Yrotation Xrotation
						JOINT LeftForeArm
						{
							OFFSET 5.64147 -0.00000 -0.00000
							CHANNELS 3 Zrotation Yrotation Xrotation
							JOINT LeftHand
							{
								OFFSET 2.86444 -0.00000 -0.00000
								CHANNELS 3 Zrotation Yrotation Xrotation
								JOINT LeftFingerBase
								{
									OFFSET 0 0 0
									CHANNELS 3 Zrotation Yrotation Xrotation
									JOINT LeftHandIndex1
									{
										OFFSET 0.72212 -0.00000 -0.00000
										CHANNELS 3 Zrotation Yrotation Xrotation
										End Site
										{
											OFFSET 0.58219 -0.00000 -0.00000
										}
									}
								}
								JOINT LThumb
								{
									OFFSET 0 0 0
									CHANNELS 3 Zrotation Yrotation Xrotation
									End Site
									{
										OFFSET 0.59108 -0.00000 0.59108
									}
								}
							}
						}
					}
				}
				JOINT RightShoulder
				{
					OFFSET 0 0 0
					CHANNELS 3 Zrotation Yrotation Xrotation
					JOINT RightArm
					{
						OFFSET -3.41176 1.18605 -0.57927
						CHANNELS 3 Zrotation Yrotation Xrotation
						JOINT RightForeArm
						{
							OFFSET -5.44729 -0.00000 -0.00000
							CHANNELS 3 Zrotation Yrotation Xrotation
							JOINT RightHand
							{
								OFFSET -3.08821 -0.00000 -0.00000
								CHANNELS 3 Zrotation Yrotation Xrotation
								JOINT RightFingerBase
								{
									OFFSET 0 0 0
									CHANNELS 3 Zrotation Yrotation Xrotation
									JOINT RightHandIndex1
									{
										OFFSET -0.82105 -0.00000 -0.00000
										CHANNELS 3 Zrotation Yrotation Xrotation
										End Site
										{
											OFFSET -0.66195 -0.00000 -0.00000
										}
									}
								}
								JOINT RThumb
								{
									OFFSET 0 0 0
									CHANNELS 3 Zrotation Yrotation Xrotation
									End Site
									{
										OFFSET -0.67206 -0.00000 0.67206
									}
								}
							}
						}
					}
				}
			}
		}
	}
}
MOTION
Frames: 15
Frame Time: .0083333
1.5508 18.0559 0.1893 0 0 0 0 0 0 -21 0 0 0 0 0 0 0 0 0 0 0 0 0 0 21 0 0 0 0 0 0 0 0 0 0 0 0 0 0 0 0 0 0 0 0 0 0 -16 0 0 21 0 0 11 0 0 0 -8 0 0 0 0 0 0 0 0 0 0 0 0 0 0 0 0 0 0 0 0 8 0 0 0 0 0 0 0 0 0 0 0 0 0 0 0 0 0
1.5508 18.0559 0.1893 -62.5546 87.6356 -53.7391 0.0000 0.0000 0.0000 -15.5226 -2.9449 -18.0239 1.0468 6.5065 18.2612 0.4031 0.9170 -12.3599 1.0030 -6.3729 -17.8704 0.0000 0.0000 0.0000 21.3047 7.4940 -13.7861 -0.4577 -4.3397 12.0345 -0.2528 -3.1829 -11.2182 -1.2554 7.1033 -20.0217 3.1115 -0.7737 12.2183 0.7422 -0.4712 3.8134 -0.9162 -0.1710 -2.8750 -4.7561 -2.2794 14.2809 4.6778 -3.4723 0.6178 2.5933 -1.8276 -2.1311 0.0000 0.0000 0.0000 -90.3008 -42.7115 58.8170 144.0403 -45.4854 -104.5063 -0.0000 0.0000 -23.7335 16.0749 27.9921 7.7024 -7.1250 0.0000 -0.0000 -16.1717 58.1912 -5.3092 0.0000 0.0000 0.0000 87.0094 31.2720 45.2821 -150.5125 40.4501 -108.9244 0.0000 0.0000 24.6320 37.3166 3.4310 2.6119 7.1250 -0.0000 -0.0000 41.2599 -21.6862 32.8853
1.5776 18.0615 0.1900 -65.0844 87.5554 -56.4512 0.0000 0.0000 0.0000 -15.4219 -2.8415 -17.5596 1.0136 6.4056 17.9659 0.4008 0.9679 -12.3495 1.0214 -6.4292 -18.0350 0.0000 0.0000 0.0000 21.4701 7.3321 -13.4516 -0.4493 -4.3004 11.9234 -0.2605 -3.0879 -11.2855 -1.1665 6.8561 -19.2896 3.3143 -0.7457 11.9448 0.7655 -0.4267 3.6064 -1.0134 -0.1566 -2.9409 -4.7714 -2.3114 13.9722 4.7430 -3.5086 0.5711 2.6125 -1.8474 -2.0880 0.0000 0.0000 0.0000 -90.2801 -42.9769 58.7506 144.0820 -45.4566 -104.5360 -0.0000 0.0000 -23.7661 16.0590 28.0780 7.7159 -7.1250 0.0000 -0.0000 -16.2424 58.2705 -5.3644 0.0000 0.0000 0.0000 86.8664 31.6041 45.1716 -150.4096 40.5397 -108.8576 0.0000 0.0000 25.0761 36.5973 3.5012 2.5966 7.1250 -0.0000 -0.0000 41.0182 -21.8951 32.1782
1.6029 18.0722 0.1929 -66.1411 87.6052 -57.7251 0.0000 0.0000 0.0000 -15.4760 -2.7253 -17.0911 0.9856 6.3192 17.7135 0.4023 0.9676 -12.3708 1.0391 -6.4831 -18.1927 0.0000 0.0000 0.0000 21.4741 7.2176 -13.1625 -0.4498 -4.3030 11.9307 -0.2632 -3.1372 -11.3683 -1.1493 6.8072 -19.1454 3.2997 -0.7351 11.6925 0.7870 -0.4305 3.3701 -0.9827 -0.1675 -3.0494 -4.8680 -2.2787 13.9424 4.8190 -3.4784 0.3437 2.6595 -1.8367 -2.1595 -0.0000 -0.0000 0.0000 -90.2190 -43.1476 58.6108 144.1236 -45.4279 -104.5657 -0.0000 0.0000 -23.6940 16.3272 28.1697 7.8735 -7.1250 0.0000 -0.0000 -16.0181 58.4183 -5.3450 -0.0000 -0.0000 0.0000 86.7727 31.8837 45.0245 -150.4459 40.5081 -108.8812 0.0000 0.0000 24.6310 36.7206 3.3780 2.5167 7.1250 -0.0000 -0.0000 41.0987 -21.9630 32.2050
1.6265 18.0753 0.1961 -66.7108 87.6895 -58.4648 0.0000 0.0000 0.0000 -15.5534 -2.7169 -16.7295 0.9723 6.2776 17.5920 0.4067 0.9832 -12.4429 1.0646 -6.5596 -18.4170 0.0000 0.0000 0.0000 21.4465 6.9953 -12.8739 -0.4388 -4.2504 11.7823 -0.2594 -3.1450 -11.3062 -1.1606 6.8394 -19.2405 3.2519 -0.7629 11.8934 0.7730 -0.4714 2.7891 -0.9600 -0.2120 -3.7675 -4.8433 -2.1965 14.0738 4.7335 -3.3728 0.3366 2.6239 -1.7819 -2.1928 -0.0000 -0.0000 0.0000 -89.9594 -42.7824 58.3487 144.2027 -45.3731 -104.6220 -0.0000 0.0000 -23.5451 16.6784 28.1346 8.0413 -7.1250 0.0000 -0.0000 -15.6252 58.4624 -5.2263 -0.0000 -0.0000 0.0000 86.8049 31.6738 45.1621 -150.4615 40.4945 -108.8913 0.0000 0.0000 24.4656 36.7722 3.3714 2.5165 7.1250 -0.0000 -0.0000 41.1169 -21.9499 32.2538
1.6475 18.0710 0.1981 -70.7980 87.6462 -62.7116 0.0000 0.0000 0.0000 -15.4349 -2.7122 -16.4455 0.9654 6.2558 17.5284 0.4056 0.9430 -12.4090 1.0726 -6.5835 -18.4871 0.0000 0.0000 0.0000 21.6342 6.6182 -12.6078 -0.4277 -4.1971 11.6318 -0.2634 -2.9906 -11.2690 -1.1824 6.9010 -19.4223 3.3855 -0.7934 11.7311 0.8212 -0.5041 2.4752 -0.9791 -0.2407 -4.0084 -4.6842 -2.1995 14.0128 4.5077 -3.3600 0.2005 2.5186 -1.7689 -2.2321 0.0000 0.0000 0.0000 -89.7774 -42.8485 58.1230 144.2918 -45.3113 -104.6853 -0.0000 0.0000 -23.5397 16.3224 28.1885 7.8758 -7.1250 0.0000 -0.0000 -16.0350 58.4354 -5.3575 0.0000 0.0000 0.0000 86.7504 31.8908 45.2030 -150.3888 40.5578 -108.8441 0.0000 0.0000 24.4474 36.2951 3.4694 2.5448 7.1250 -0.0000 -0.0000 40.9340 -22.0347 31.8367
1.6689 18.0649 0.1971 -73.8528 87.6471 -65.9651 0.0000 0.0000 0.0000 -15.3975 -2.7233 -16.1244 0.9629 6.2481 17.5060 0.4103 0.8786 -12.4506 1.0529 -6.5246 -18.3144 0.0000 0.0000 0.0000 21.7528 6.2932 -12.2524 -0.4168 -4.1439 11.4819 -0.2699 -2.8510 -11.2869 -1.2417 7.0657 -19.9101 3.4751 -0.8499 11.4305 0.8927 -0.5806 2.3428 -0.9452 -0.2826 -3.9845 -4.7845 -2.1734 13.6576 4.3857 -3.3400 0.1019 2.4871 -1.7544 -2.2016 0.0000 0.0000 0.0000 -89.6910 -43.2624 57.8311 144.2615 -45.3323 -104.6638 -0.0000 0.0000 -23.4468 16.0005 28.2363 7.7259 -7.1250 0.0000 -0.0000 -16.4046 58.4103 -5.4753 0.0000 0.0000 0.0000 86.6686 32.5046 44.9396 -150.5375 40.4282 -108.9406 0.0000 0.0000 22.7152 37.9057 3.1753 2.4696 7.1250 -0.0000 -0.0000 41.5166 -21.6876 33.3115
1.6908 18.0615 0.1975 -75.4378 87.6912 -67.7666 0.0000 0.0000 0.0000 -15.4365 -2.6859 -15.7766 0.9573 6.2302 17.4537 0.4176 0.7953 -12.5203 1.0379 -6.4795 -18.1821 0.0000 0.0000 0.0000 21.7805 6.0551 -11.8777 -0.4065 -4.0929 11.3382 -0.2753 -2.7601 -11.3203 -1.3037 7.2334 -20.4086 3.3902 -0.9331 11.2240 1.0291 -0.7049 2.1730 -0.7377 -0.3475 -4.0505 -5.1763 -2.0598 13.3197 4.3770 -3.2437 0.0696 2.5427 -1.7049 -2.1520 -0.0000 0.0000 0.0000 -89.6269 -43.5350 57.3918 144.2473 -45.3422 -104.6537 -0.0000 0.0000 -23.3198 15.8999 28.6054 7.7662 -7.1250 0.0000 -0.0000 -16.7500 58.7431 -5.7294 -0.0000 0.0000 0.0000 86.4953 32.9520 45.3583 -150.3455 40.5954 -108.8159 0.0000 0.0000 23.1567 36.9530 3.4568 2.5971 7.1250 -0.0000 -0.0000 41.1426 -21.8027 32.5171
1.7088 18.0650 0.2004 -76.8239 87.7527 -69.3019 0.0000 0.0000 0.0000 -15.4907 -2.6613 -15.4748 0.9435 6.1865 17.3266 0.4196 0.7430 -12.5270 0.9967 -6.3536 -17.8138 0.0000 0.0000 0.0000 21.7458 5.9654 -11.6322 -0.4011 -4.0663 11.2633 -0.2802 -2.7664 -11.4096 -1.2931 7.2050 -20.3242 3.2521 -0.9622 10.9891 1.1464 -0.7662 1.9619 -0.5298 -0.3817 -4.1401 -5.4098 -2.0094 13.0986 4.3038 -3.2101 0.0013 2.5549 -1.6849 -2.1347 0.0000 0.0000 0.0000 -89.6029 -43.8291 57.1105 144.1784 -45.3900 -104.6047 -0.0000 0.0000 -23.2799 15.1874 28.7931 7.4490 -7.1250 0.0000 -0.0000 -17.6255 58.7633 -6.0492 0.0000 0.0000 0.0000 86.3714 33.3179 45.7518 -150.1778 40.7406 -108.7066 0.0000 0.0000 23.8398 36.1069 3.5583 2.5920 7.1250 -0.0000 -0.0000 40.8432 -22.0200 31.7161
1.7248 18.0736 0.2021 -78.8945 87.7422 -71.5139 0.0000 0.0000 0.0000 -15.4681 -2.5915 -15.2077 0.9293 6.1412 17.1947 0.4183 0.7137 -12.4961 1.0037 -6.3750 -17.8764 0.0000 0.0000 0.0000 21.7711 5.9354 -11.4190 -0.3988 -4.0546 11.2302 -0.2853 -2.8347 -11.5406 -1.2337 7.0438 -19.8453 3.4077 -0.8342 10.7885 1.0344 -0.5956 1.7276 -0.7586 -0.3080 -4.2707 -5.0566 -2.1502 13.1700 4.3766 -3.3426 -0.3051 2.5306 -1.7556 -2.2472 -0.0000 -0.0000 0.0000 -89.6405 -44.1281 57.5388 144.0779 -45.4594 -104.5331 -0.0000 0.0000 -23.3263 14.7395 28.5474 7.1658 -7.1250 0.0000 -0.0000 -17.9304 58.4295 -6.0135 -0.0000 -0.0000 0.0000 86.3998 33.5181 45.4241 -150.1891 40.7308 -108.7140 0.0000 0.0000 23.9896 35.7446 3.5142 2.5261 7.1250 -0.0000 -0.0000 40.7398 -22.1871 31.3097
1.7404 18.0759 0.2029 -81.1778 87.7189 -73.9996 0.0000 0.0000 0.0000 -15.4335 -2.5717 -14.8468 0.9154 6.0961 17.0636 0.4237 0.7409 -12.5862 1.0411 -6.4893 -18.2110 0.0000 0.0000 0.0000 21.8437 5.7997 -11.1271 -0.3964 -4.0424 11.1959 -0.2911 -2.8116 -11.6224 -1.2182 7.0010 -19.7182 3.7168 -0.5769 10.6391 0.7397 -0.2436 1.5472 -1.2899 -0.1478 -4.3650 -4.2072 -2.4654 13.3564 4.5725 -3.6213 -0.8153 2.4737 -1.9081 -2.4480 -0.0000 -0.0000 0.0000 -89.7838 -44.3560 58.6245 144.0617 -45.4707 -104.5215 -0.0000 0.0000 -23.3832 15.2588 27.7918 7.2487 -7.1250 0.0000 -0.0000 -16.8991 57.8203 -5.4049 -0.0000 -0.0000 0.0000 86.4806 33.6958 44.6307 -150.2508 40.6774 -108.7542 0.0000 0.0000 24.1601 35.4839 3.5003 2.4921 7.1250 -0.0000 -0.0000 40.6574 -22.2886 31.0354
1.7552 18.0674 0.2023 -83.1534 87.7956 -76.1656 0.0000 0.0000 0.0000 -15.5231 -2.5505 -14.5297 0.9068 6.0684 16.9830 0.4277 0.7633 -12.6541 1.0741 -6.5881 -18.5005 0.0000 0.0000 0.0000 21.8355 5.4905 -10.8497 -0.3889 -4.0044 11.0890 -0.2940 -2.6952 -11.5955 -1.2719 7.1478 -20.1540 3.8279 -0.4260 10.4795 0.5504 -0.0500 1.3796 -1.5771 -0.0618 -4.4421 -3.7029 -2.6535 13.3758 4.6772 -3.7829 -1.2060 2.4366 -1.9982 -2.5823 0.0000 -0.0000 0.0000 -89.8496 -44.7454 59.1846 144.1602 -45.4026 -104.5917 -0.0000 0.0000 -23.5082 15.7053 27.2858 7.3452 -7.1250 0.0000 -0.0000 -16.1232 57.4284 -4.9945 0.0000 -0.0000 0.0000 86.4816 33.9669 44.2610 -150.2639 40.6661 -108.7627 0.0000 0.0000 24.2733 35.1138 3.4997 2.4579 7.1250 -0.0000 -0.0000 40.5312 -22.4119 30.6665
1.7694 18.0661 0.2014 -84.2884 87.7902 -77.4577 0.0000 0.0000 0.0000 -15.5196 -2.5754 -14.2740 0.9065 6.0672 16.9794 0.4321 0.7740 -12.7208 1.0324 -6.4630 -18.1338 0.0000 0.0000 0.0000 21.8824 5.3006 -10.5561 -0.3746 -3.9312 10.8831 -0.2904 -2.7205 -11.5518 -1.2803 7.1705 -20.2215 3.8764 -0.3633 10.3410 0.5535 0.0321 1.1875 -1.6123 -0.0290 -4.5614 -3.7244 -2.6840 13.1209 4.7927 -3.8171 -1.2520 2.4749 -2.0187 -2.5472 -0.0000 -0.0000 0.0000 -89.9157 -45.3051 59.2255 144.3443 -45.2747 -104.7227 -0.0000 0.0000 -23.6865 16.2741 27.9356 7.7877 -7.1250 0.0000 -0.0000 -15.9269 58.1803 -5.2219 -0.0000 -0.0000 0.0000 86.2804 34.3220 44.2305 -150.2787 40.6534 -108.7724 0.0000 0.0000 24.2677 34.6891 3.4673 2.3970 7.1250 -0.0000 -0.0000 40.3933 -22.5778 30.2241
1.7834 18.0692 0.2023 -85.3252 87.7257 -78.5948 0.0000 0.0000 0.0000 -15.4430 -2.5833 -14.0785 0.9039 6.0588 16.9552 0.4358 0.7734 -12.7735 0.9761 -6.2893 -17.6261 0.0000 0.0000 0.0000 21.9612 5.2846 -10.2889 -0.3616 -3.8629 10.6913 -0.2895 -2.8030 -11.5901 -1.1962 6.9397 -19.5369 3.9819 -0.2960 10.3077 0.5605 0.1337 0.8954 -1.6785 0.0074 -4.8429 -3.7836 -2.7199 12.8075 4.9730 -3.8610 -1.1444 2.5365 -2.0443 -2.4471 -0.0000 -0.0000 0.0000 -89.9932 -45.5508 59.4490 144.5046 -45.1627 -104.8364 -0.0000 0.0000 -23.7104 16.6462 28.1970 8.0412 -7.1250 0.0000 -0.0000 -15.6984 58.5157 -5.2718 -0.0000 -0.0000 0.0000 86.0840 34.5944 44.1395 -150.3342 40.6052 -108.8085 0.0000 0.0000 24.2472 34.4713 3.3529 2.2994 7.1250 -0.0000 -0.0000 40.3547 -22.7501 29.9208
1.7977 18.0700 0.2034 -87.0667 87.6848 -80.4604 0.0000 0.0000 0.0000 -15.3982 -2.5954 -13.8273 0.8952 6.0304 16.8728 0.4402 0.7792 -12.8396 1.0075 -6.3867 -17.9106 0.0000 0.0000 0.0000 22.0358 5.1461 -10.0350 -0.3504 -3.8032 10.5237 -0.2897 -2.8062 -11.5959 -1.1637 6.8482 -19.2664 4.0371 -0.3114 10.3941 0.5948 0.1293 0.5477 -1.6729 -0.0106 -5.2568 -3.9252 -2.6896 12.4673 5.1024 -3.8327 -0.9746 2.5898 -2.0308 -2.3246 -0.0000 -0.0000 0.0000 -89.9210 -45.5220 59.5725 144.6080 -45.0900 -104.9097 -0.0000 0.0000 -23.4129 16.7867 27.6223 7.9619 -7.1250 0.0000 -0.0000 -15.1956 57.9884 -4.9041 -0.0000 -0.0000 0.0000 85.9592 34.8335 44.3303 -150.3888 40.5578 -108.8441 0.0000 0.0000 24.2794 34.1155 3.2283 2.1848 7.1250 -0.0000 -0.0000 40.2680 -22.9719 29.4801
